Coordinates
version=1
nRows=16
nColumns=40
inDegrees=yes

Units are S.I. units (second, meters, Newtons, ...)
Angles are in degrees.

endheader
time	pelvis_tilt	pelvis_list	pelvis_rotation	pelvis_tx	pelvis_ty	pelvis_tz	hip_flexion_r	hip_adduction_r	hip_rotation_r	knee_angle_r	knee_angle_r_beta	ankle_angle_r	subtalar_angle_r	mtp_angle_r	hip_flexion_l	hip_adduction_l	hip_rotation_l	knee_angle_l	knee_angle_l_beta	ankle_angle_l	subtalar_angle_l	mtp_angle_l	lumbar_extension	lumbar_bending	lumbar_rotation	arm_flex_r	arm_add_r	arm_rot_r	elbow_flex_r	pro_sup_r	wrist_flex_r	wrist_dev_r	arm_flex_l	arm_add_l	arm_rot_l	elbow_flex_l	pro_sup_l	wrist_flex_l	wrist_dev_l
      4.61000000	     -1.44580552	     -4.51770074	      0.51742153	      1.08017742	      0.93443976	      0.41604617	     26.42937213	     -5.02891406	     -4.17024390	     58.86222269	     58.86222269	      3.32363445	     -9.81665511	      0.06843293	     13.67927003	     -4.78786419	     -6.28731948	     23.28578779	     23.28578779	     13.29010322	    -12.00400181	      0.06849699	    -11.01956359	      4.72675258	      1.00726160	      0.91587022	    -15.67649643	      0.91319411	     31.29172336	     45.78998140	      0.00000000	      0.00000000	     13.67232503	    -15.56530333	     -0.95123868	     53.16996549	     46.00688686	      0.00000000	      0.00000000
      4.62371429	     -1.60259257	     -4.86566287	      0.02636957	      1.07890877	      0.93487441	      0.41654175	     27.06077890	     -4.57105026	     -4.43674165	     56.07687420	     56.07687420	      3.49691825	     -9.45590601	      0.06631593	     13.28645268	     -5.21897029	     -6.57439369	     22.96886595	     22.96886595	     13.42822490	    -12.04919376	      0.07460533	    -11.04397222	      5.01990174	      0.86338212	      0.24064746	    -15.73803810	      0.85059422	     30.99287615	     45.80301437	      0.00000000	      0.00000000	     14.55835307	    -15.82233367	     -0.99397129	     54.14372822	     46.03636482	      0.00000000	      0.00000000
      4.63742857	     -1.67045456	     -5.07370746	     -0.53487400	      1.07766542	      0.93531950	      0.41703390	     27.44367253	     -4.15005589	     -4.50267635	     52.98251854	     52.98251854	      3.46402604	     -9.03253074	     -0.33528846	     12.78043501	     -5.49784143	     -6.97389459	     22.67590141	     22.67590141	     13.61033499	    -12.12433358	     -0.00877307	    -11.19550642	      5.15464107	      0.91062271	     -0.54978636	    -15.82742763	      0.62249052	     30.81174739	     45.82244697	      0.00000000	      0.00000000	     15.38078172	    -16.16579607	     -0.87313361	     56.03806327	     46.06972794	      0.00000000	      0.00000000
      4.65114286	     -1.91066631	     -5.32012989	     -1.04411650	      1.07639398	      0.93551574	      0.41758353	     27.84596463	     -3.74036417	     -4.83262574	     49.62773718	     49.62773718	      3.46978869	     -8.36641483	     -0.31246935	     12.47504014	     -5.81314466	     -7.30782867	     22.35960228	     22.35960228	     13.71271700	    -12.21772118	     -0.01338627	    -11.14084136	      5.31670756	      0.67347195	     -1.18675618	    -15.85209536	      0.48091219	     30.72234025	     45.83175900	      0.00000000	      0.00000000	     16.12721384	    -16.59497697	     -0.85658829	     57.19488986	     46.09525578	      0.00000000	      0.00000000
      4.66485714	     -2.00846955	     -5.48885062	     -1.59239845	      1.07529427	      0.93581344	      0.41821582	     27.86376882	     -3.32765518	     -5.08463199	     45.81782623	     45.81782623	      2.72390433	     -7.83921732	     -2.45988707	     11.95610442	     -6.04814513	     -7.73109748	     21.97153191	     21.97153191	     13.69030436	    -12.30651674	     -0.42391556	    -11.35704470	      5.39272027	      0.42190735	     -1.90592953	    -15.74276345	     -0.84171284	     31.32167007	     45.89778717	      0.00000000	      0.00000000	     15.92604570	    -17.69308972	     -0.03736108	     61.22765424	     46.14790450	      0.00000000	      0.00000000
      4.67857143	     -2.23645821	     -5.66411960	     -2.10723655	      1.07413322	      0.93593544	      0.41885058	     27.96676034	     -2.91257153	     -5.45629636	     41.96141423	     41.96141423	      2.74625484	     -6.70373291	     -2.13341782	     11.61630391	     -6.28065718	     -8.08432135	     21.63537720	     21.63537720	     13.80738651	    -12.39726373	     -0.41107327	    -11.32339883	      5.53086473	      0.35150984	     -2.43562267	    -15.75932740	     -0.93566050	     31.14828147	     45.90773310	      0.00000000	      0.00000000	     16.83113338	    -17.93380053	     -0.15823849	     62.01813212	     46.18218206	      0.00000000	      0.00000000
      4.69228571	     -2.36903443	     -5.75522798	     -2.64475541	      1.07312023	      0.93614620	      0.41957329	     27.82850722	     -2.57118587	     -5.90765586	     37.87651207	     37.87651207	      2.70866639	     -5.12261459	     -1.93636378	     11.13329467	     -6.42485288	     -8.51792397	     21.25310736	     21.25310736	     13.90305210	    -12.43074637	     -0.45244343	    -11.44393875	      5.54753660	      0.45903546	     -2.97461659	    -15.76879910	     -1.18043686	     31.08239082	     45.92348401	      0.00000000	      0.00000000	     17.67266571	    -18.16039290	     -0.19013276	     63.35819333	     46.22154779	      0.00000000	      0.00000000
      4.70600000	     -2.59475630	     -5.81006729	     -3.15699109	      1.07210599	      0.93613907	      0.42034921	     27.68077857	     -2.23413469	     -6.45773703	     33.61581609	     33.61581609	      2.55844320	     -3.31807010	     -1.64601192	     10.76742409	     -6.53043488	     -8.92641722	     20.87971947	     20.87971947	     13.97831972	    -12.47976468	     -0.52542252	    -11.45635967	      5.56349821	      0.47355221	     -3.41134981	    -15.71532261	     -1.47267969	     31.11228524	     45.93878766	      0.00000000	      0.00000000	     18.37274481	    -18.42967410	     -0.17238956	     64.67694939	     46.25668077	      0.00000000	      0.00000000
      4.71971429	     -2.85553569	     -5.82045734	     -3.64836408	      1.07116564	      0.93599182	      0.42122970	     27.45887174	     -1.90146774	     -7.09277398	     29.23336571	     29.23336571	      2.32236159	     -1.22582825	     -1.25816647	     10.44274258	     -6.59642415	     -9.34440923	     20.51017913	     20.51017913	     14.04531677	    -12.48283286	     -0.63170036	    -11.42634766	      5.52183611	      0.49394659	     -3.76064096	    -15.58983126	     -1.79567134	     31.21521811	     45.95352597	      0.00000000	      0.00000000	     19.02288355	    -18.69520985	     -0.13305553	     66.00034907	     46.29004340	      0.00000000	      0.00000000
      4.73342857	     -3.02904814	     -5.76560069	     -4.11048581	      1.07039934	      0.93579855	      0.42215236	     27.04547325	     -1.64397604	     -7.94862063	     24.83158008	     24.83158008	      2.00246733	      1.35367860	     -0.85053545	     10.01120298	     -6.59192790	     -9.80413400	     20.13907737	     20.13907737	     14.14004604	    -12.41772987	     -0.84450598	    -11.47735601	      5.40681681	      0.53054924	     -4.04363334	    -15.41478280	     -2.31487765	     31.45182040	     45.97615900	      0.00000000	      0.00000000	     19.60474782	    -18.98302045	     -0.02763223	     67.59493479	     46.32831260	      0.00000000	      0.00000000
      4.74714286	     -3.36349414	     -5.66738673	     -4.50213409	      1.06960352	      0.93532249	      0.42312671	     26.75218584	     -1.32609100	     -8.69796239	     20.49679103	     20.49679103	      1.43303769	      3.57969969	      0.03114462	      9.81135731	     -6.55173268	    -10.19410165	     19.82093007	     19.82093007	     14.19691920	    -12.38832769	     -0.99856151	    -11.34986039	      5.31869183	      0.51779943	     -4.25070397	    -15.21222257	     -2.64096560	     31.60072504	     45.98964914	      0.00000000	      0.00000000	     20.16572086	    -19.15974158	      0.03722143	     68.65611046	     46.35571709	      0.00000000	      0.00000000
      4.76085714	     -3.59090628	     -5.54613421	     -4.86152668	      1.06910157	      0.93482595	      0.42421425	     26.30888401	     -1.03173590	     -9.56457654	     16.44980296	     16.44980296	      0.86564467	      5.97964796	      1.14909987	      9.46326887	     -6.47895395	    -10.57295595	     19.48505261	     19.48505261	     14.32579908	    -12.28772215	     -1.21249003	    -11.23816120	      5.17269318	      0.53979705	     -4.40692915	    -14.94409334	     -2.96137845	     31.77555322	     46.00179010	      0.00000000	      0.00000000	     20.71634092	    -19.25625259	      0.14126876	     69.70978026	     46.38036693	      0.00000000	      0.00000000
      4.77457143	     -3.75436418	     -5.35884449	     -5.15345838	      1.06873236	      0.93426090	      0.42529954	     25.90497286	     -0.83943264	    -10.49408859	     13.01480075	     13.01480075	      0.35659272	      8.28551094	      2.52439416	      9.06557107	     -6.33422867	    -10.94827230	     19.17406770	     19.17406770	     14.44496339	    -12.12546065	     -1.48594521	    -11.23258708	      4.94831755	      0.54914649	     -4.47802897	    -14.71562219	     -3.32321624	     32.00100917	     46.01500683	      0.00000000	      0.00000000	     21.28714190	    -19.36016545	      0.27337724	     70.72801139	     46.40421472	      0.00000000	      0.00000000
      4.78828571	     -3.89911170	     -5.16457849	     -5.37250024	      1.06851949	      0.93371117	      0.42629479	     25.77302512	     -0.81002453	    -11.78270210	     10.74409475	     10.74409475	      1.22876069	     10.81268656	      7.39672404	      8.58978493	     -6.16248084	    -11.32587056	     18.72765107	     18.72765107	     14.27270880	    -12.00342751	     -2.49798289	    -11.23886592	      4.82247220	      0.59573970	     -4.63999512	    -14.20019546	     -5.63959157	     32.79081217	     46.12245465	      0.00000000	      0.00000000	     21.64145585	    -19.62611277	      0.83018840	     72.30304766	     46.50151768	      0.00000000	      0.00000000
      4.80200000	     -4.04928596	     -4.97069572	     -5.54487989	      1.06850634	      0.93308091	      0.42748295	     25.52120376	     -0.67566358	    -12.44839354	      8.68746864	      8.68746864	      0.70486571	     11.82806641	      8.27094672	      8.18055650	     -5.99758445	    -11.58894497	     18.42552055	     18.42552055	     14.44313462	    -11.84060952	     -2.61656524	    -11.11557306	      4.64654521	      0.63565815	     -4.54899924	    -13.95059318	     -5.74592868	     32.84054555	     46.12570701	      0.00000000	      0.00000000	     22.24949305	    -19.49225829	      0.90021176	     72.66946034	     46.52218034	      0.00000000	      0.00000000
      4.81571429	     -4.13316743	     -4.80594951	     -5.65366426	      1.06873568	      0.93251804	      0.42863966	     25.29722500	     -0.63708168	    -13.16338707	      7.48391932	      7.48391932	      0.49098989	     12.56477240	      9.13812646	      7.65888758	     -5.85750573	    -11.86640495	     18.06483347	     18.06483347	     14.64970586	    -11.51521627	     -2.85359632	    -11.04198137	      4.55460015	      0.65975445	     -4.43829386	    -13.73156146	     -5.93037979	     33.02523050	     46.12750377	      0.00000000	      0.00000000	     22.73097879	    -19.36189108	      1.10060077	     73.07912925	     46.54035761	      0.00000000	      0.00000000
